# xmcd CD database file
#
# Track frame offsets:
#	150
#	6850
#	29952
#	53264
#	78921
#	102625
#	126493
#	160810
#	186920
#	206837
#	244919
#
# Disc length: 3619 seconds
#
# Revision: 2
# Processed by: cddbd v1.5.2PL0 Copyright (c) Steve Scherf et al.
# Submitted via: CDex 1.70beta2
#
DISCID=990e210b
DTITLE=Muro - Peligro Inminente
DYEAR=1900
DGENRE=Heavy Metal
TTITLE0=CO2
TTITLE1=España va Bien
TTITLE2=Aqui Huele a Muerto
TTITLE3=Fanatico
TTITLE4=Peligro Inminente
TTITLE5=Cierra Tu Mente
TTITLE6=Pesadilla
TTITLE7=Bendito Pecado
TTITLE8=Ella, la mas Bella
TTITLE9=Gracias por Nada
TTITLE10=Mirada Asesina
EXTD=
EXTT0=
EXTT1=
EXTT2=
EXTT3=
EXTT4=
EXTT5=
EXTT6=
EXTT7=
EXTT8=
EXTT9=
EXTT10=
PLAYORDER=
